<?xml version="1.0" standalone="no"?>
<!DOCTYPE svg PUBLIC "-//W3C//DTD SVG 20010904//EN"
 "http://www.w3.org/TR/2001/REC-SVG-20010904/DTD/svg10.dtd">
<svg version="1.0" xmlns="http://www.w3.org/2000/svg"
 width="512.000000pt" height="512.000000pt" viewBox="0 0 512.000000 512.000000"
 preserveAspectRatio="xMidYMid meet">

<g transform="translate(0.000000,512.000000) scale(0.100000,-0.100000)"
fill="#000000" stroke="none">
<path d="M928 4416 c-101 -27 -159 -98 -189 -231 -94 -429 -67 -779 86 -1103
l44 -92 -41 -108 c-50 -134 -111 -373 -132 -519 -9 -61 -16 -173 -16 -247 l0
-136 -27 -6 c-210 -46 -376 -112 -381 -152 -4 -23 22 -62 41 -62 5 0 48 16 96
35 76 30 235 75 268 75 6 0 16 -31 23 -72 7 -39 25 -112 41 -162 15 -50 27
-91 26 -91 -26 -11 -132 -94 -182 -142 -50 -50 -65 -71 -65 -93 0 -29 22 -50
54 -50 8 0 34 21 58 46 24 25 74 69 112 97 63 47 70 50 80 33 130 -213 303
-374 525 -489 479 -247 1229 -318 1901 -181 258 53 517 159 692 284 108 77
241 214 309 317 28 43 52 80 55 82 6 7 146 -104 187 -148 21 -23 45 -41 53
-41 31 0 54 21 54 49 0 22 -16 44 -77 102 -43 41 -99 88 -126 104 -32 20 -45
35 -41 45 16 43 55 189 65 245 8 49 15 65 28 65 31 0 204 -50 275 -80 83 -35
88 -36 110 -11 27 30 16 62 -29 88 -49 27 -207 79 -295 97 l-65 13 -6 174 c-3
96 -14 217 -23 269 -25 139 -80 344 -125 464 l-40 106 44 92 c137 292 173 612
110 978 -32 186 -61 259 -122 309 -60 49 -120 63 -222 51 -279 -34 -570 -137
-776 -275 l-81 -54 -90 31 c-160 55 -299 79 -499 85 -138 4 -206 2 -291 -11
-122 -18 -277 -56 -355 -86 l-50 -20 -77 51 c-177 117 -405 208 -632 253 -166
32 -226 37 -282 22z m299 -132 c125 -28 239 -65 348 -114 75 -34 225 -120 225
-130 0 -3 -26 -18 -57 -34 -64 -30 -164 -93 -230 -142 l-43 -32 -111 75 c-62
41 -164 100 -228 131 -110 54 -120 57 -191 57 -41 0 -85 -4 -96 -8 l-22 -8 18
75 c20 87 38 119 83 147 27 18 43 20 109 15 43 -3 130 -17 195 -32z m2970 16
c45 -27 63 -59 83 -146 l18 -75 -22 8 c-11 4 -55 8 -96 8 -71 0 -81 -3 -191
-57 -64 -31 -166 -90 -228 -131 l-111 -75 -43 32 c-64 48 -178 119 -236 146
-28 14 -51 27 -51 30 0 12 163 103 253 142 160 69 419 135 542 137 33 1 61 -6
82 -19z m-1459 -201 c491 -53 925 -319 1205 -740 67 -101 170 -304 226 -447
110 -277 171 -568 171 -813 l0 -106 -117 4 c-130 5 -165 -5 -171 -46 -2 -12 4
-31 14 -42 15 -17 32 -19 141 -19 l123 0 -6 -42 c-9 -61 -39 -177 -55 -215
l-14 -32 -69 30 c-101 43 -193 66 -214 53 -20 -13 -28 -60 -12 -78 6 -8 32
-19 58 -26 62 -15 192 -70 192 -80 0 -5 -23 -43 -51 -85 -98 -146 -277 -299
-458 -390 -338 -169 -903 -256 -1396 -215 -563 47 -958 194 -1214 450 -70 70
-181 217 -181 240 0 10 130 65 192 80 56 14 71 29 66 66 -7 58 -58 55 -225
-11 l-82 -33 -20 61 c-19 56 -51 195 -51 218 0 5 54 9 123 9 110 0 126 2 142
20 24 26 13 67 -23 81 -16 7 -74 9 -139 7 l-113 -4 0 110 c1 404 181 952 428
1301 350 495 932 759 1530 694z m-1640 -162 c109 -54 282 -160 282 -173 0 -3
-43 -51 -95 -106 -117 -124 -199 -239 -291 -408 l-71 -130 -26 58 c-68 152
-107 355 -107 562 0 121 2 141 23 180 27 56 75 83 133 77 23 -2 90 -29 152
-60z m3168 38 c49 -32 64 -85 64 -235 0 -206 -32 -381 -102 -548 l-30 -73 -68
124 c-105 193 -183 300 -324 445 l-71 73 29 24 c48 38 225 140 311 179 88 40
142 43 191 11z"/>
<path d="M1850 2792 c-19 -11 -48 -41 -65 -67 -25 -41 -31 -61 -33 -124 -3
-67 0 -82 25 -131 38 -74 82 -103 146 -97 103 9 172 136 147 269 -25 129 -129
200 -220 150z m150 -142 c38 -38 19 -100 -30 -100 -31 0 -50 22 -50 59 0 22
32 61 50 61 6 0 19 -9 30 -20z"/>
<path d="M3150 2793 c-162 -84 -127 -404 47 -420 64 -6 108 23 146 96 88 175
-46 400 -193 324z m30 -143 c38 -38 19 -100 -30 -100 -31 0 -50 22 -50 59 0
22 32 61 50 61 6 0 19 -9 30 -20z"/>
<path d="M2393 2134 c-62 -16 -103 -60 -103 -111 0 -31 8 -44 48 -82 26 -25
75 -61 110 -79 l62 -33 0 -64 0 -64 -60 -36 c-184 -112 -303 -97 -376 47 -30
60 -56 75 -90 53 -29 -19 -30 -46 -4 -100 32 -65 86 -121 145 -150 48 -24 64
-27 137 -24 71 4 94 9 161 41 43 21 91 47 107 58 l28 20 64 -38 c227 -138 425
-102 517 94 27 57 26 80 -3 99 -34 22 -58 8 -93 -57 -15 -28 -45 -65 -66 -82
-35 -28 -46 -31 -105 -31 -72 1 -127 20 -214 77 l-48 30 0 63 0 64 62 33 c35
18 84 54 110 79 40 38 48 51 48 81 0 46 -37 92 -87 109 -50 16 -289 18 -350 3z
m42 -85 c-20 -25 -25 -38 -20 -60 8 -35 -1 -36 -32 -7 -44 42 -16 98 50 98
l29 0 -27 -31z"/>
</g>
</svg>
